# xmcd CD database file
#
# Track frame offsets:
#	183
#	16558
#	28133
#	44483
#	57233
#	69583
#	79108
#	90583
#	102633
#	117183
#	127008
#	143233
#	157583
#	168608
#
# Disc length: 2420 seconds
#
# Revision: 0
# Processed by: cddbd v1.5.2PL0 Copyright (c) Steve Scherf et al.
# Submitted via: CDex 1.51
#
DISCID=b609720e
DTITLE=Bobby bare - Truck Gold
DYEAR=1900
DGENRE=Country
TTITLE0=The Waitress At Mainstrett Cafe
TTITLE1=Coal River
TTITLE2=Me and Bobby McGee
TTITLE3=Travelling Mistrel Man
TTITLE4=Just The Other Side of Nowhere
TTITLE5=That's all Right, Mama
TTITLE6=That's How I Got To Memphis
TTITLE7=I'm Her Hoss If I Never Win A Race
TTITLE8=Leaving On A Jetplane
TTITLE9=Woman, You Have Been A Friend To Me
TTITLE10=Mary Ann Regrets
TTITLE11=A Million Miles To The City
TTITLE12=Dropping Out Of Sight
TTITLE13=High And Dry
EXTD=
EXTT0=
EXTT1=
EXTT2=
EXTT3=
EXTT4=
EXTT5=
EXTT6=
EXTT7=
EXTT8=
EXTT9=
EXTT10=
EXTT11=
EXTT12=
EXTT13=
PLAYORDER=
